<?xml version="1.0" encoding="UTF-8"?>
<svg id="Layer_2" xmlns="http://www.w3.org/2000/svg" viewBox="0 0 960 276.9">
  <defs>
    <style>
      .cls-1 {
        fill: #000126;
      }
    </style>
  </defs>
  <g id="Layer_1-2" data-name="Layer_1">
    <g>
      <path class="cls-1" d="M244.3,93.9h30.5V2.1h-91.8v30.5h61.3v61.3ZM30.5,185.1H0v91.8h91.8v-30.5H30.5v-61.3ZM274.8,185.1h-30.5v47.9L30.5,2.1H0v91.8h30.5v-48.2l213.7,231.1h30.5l.1-91.7Z"/>
      <path class="cls-1" d="M467.4,0c-15.3,0-25.3,7.5-29.8,16.7V2.1h-25.4v91.8h25.4v-53c0-13.5,8.2-20.2,19.1-20.2s16.1,6,16.1,18.4v54.7h25.4v-58.4c.1-24.5-12.7-35.4-30.8-35.4ZM557.3,0c-26.7,0-47.2,18.8-47.2,47.7v1.4c0,29.3,20.2,46.7,47.9,46.7,25.1,0,40.9-11.1,43.9-30.9h-24c-1.6,7.7-7.4,12.8-19.1,12.8-13.9,0-22.1-8.8-22.8-24h66.2v-7c-.1-32.8-21.2-46.7-44.9-46.7ZM536.3,38.1c1.9-13,9.7-20.5,21.1-20.5,12.1,0,19.1,6.7,20,20.5h-41.1ZM813.3,0c-27.5,0-48.4,18.8-48.4,47.6v1.4c0,28.6,20.9,46.8,48.3,46.8s48.4-18.4,48.4-47.4v-1.4c-.1-28.6-20.8-47-48.3-47ZM835.7,48.6c0,17.4-8.2,27.9-22.5,27.9s-22.5-10.5-22.5-28.1v-1.4c0-17.5,8.4-27.7,22.5-27.7s22.5,10.5,22.5,28.1v1.2ZM929.1,0c-15.3,0-25.3,7.5-29.8,16.7V2.1h-25.4v91.8h25.4v-53c0-13.5,8.2-20.2,19.1-20.2s16.1,6,16.1,18.4v54.7h25.5v-58.4c0-24.5-12.8-35.4-30.9-35.4ZM730.6,19.7V2.1h-25.4v91.8h25.4v-46c0-17.5,10.9-23.7,29.7-23.5V.7c-14.9.2-23.9,6.7-29.7,19ZM650.9,67.7l-21.9-65.6h-27.2l33.5,91.8h28.6L697.2,2.1h-24.6l-21.7,65.6Z"/>
    </g>
  </g>
</svg>